<?xml version="1.0" encoding="utf-8"?>
<!-- Generator: Adobe Illustrator 28.2.0, SVG Export Plug-In . SVG Version: 6.00 Build 0)  -->
<svg version="1.1" id="Layer_1" xmlns="http://www.w3.org/2000/svg" xmlns:xlink="http://www.w3.org/1999/xlink" x="0px" y="0px"
	 viewBox="0 0 800 800" style="enable-background:new 0 0 800 800;" xml:space="preserve">
<style type="text/css">
	.st0{fill-rule:evenodd;clip-rule:evenodd;}
	.st1{fill-rule:evenodd;clip-rule:evenodd;fill:#FFFFFF;}
	.st2{fill-rule:evenodd;clip-rule:evenodd;fill:#FADE2F;}
	.st3{fill-rule:evenodd;clip-rule:evenodd;fill:#FBE02F;}
	.st4{fill-rule:evenodd;clip-rule:evenodd;fill:#231F20;}
	.st5{fill:#FFFFFF;}
</style>
<path class="st0" d="M435.9,737.5c-2.9,8.6-12.2,29.7-34.9,29.7c-25.7,0-34.7-27.8-35.1-29l-0.7-2.7c0,0,22.1,1.8,34.3,1.8
	c12.2,0,33-1.2,36.4-1.8L435.9,737.5L435.9,737.5z"/>
<path class="st0" d="M503.4,723.8l5.3,0.7c-6.3,16.4-17.6,34.8-39.8,34.8c-21.5,0-32.2-12.5-36.7-20.8l-3.7-2.3
	C428.4,736.2,465.6,734.9,503.4,723.8z M299.5,723.8l-5.3,0.7c6.3,16.4,17.6,34.8,39.8,34.8c21.5,0,33.1-13.2,37.9-20.8l2.5-2.3
	C374.5,736.2,337.3,734.9,299.5,723.8z"/>
<path class="st1" d="M419.1,739.2c-3.5,5-5.8,4.8-10,4.8c-2.1,0-5.3,1.7-5.2,4.9c0.1,2.5,2.1,4.5,5.5,4.5c7.6,0,13.4-10.6,15-15.1
	c0,0,4.5-0.2,5.8-0.3c0,0-8,24-28.9,24c-20.9,0-29.4-23.7-29.4-23.7s17.6,1.1,27.7,1.1S416.1,739.3,419.1,739.2L419.1,739.2z
	 M500.6,728.7c-13.6,3.7-23.3,6.6-46.2,9.4c0,0,0.7,2.4,5.7,2.1c1.9-0.1,2.2-0.6,2.9-0.7c1.4-0.3,3.6,1.2,3.3,3.7
	c-0.2,1.7-1.7,3.9-6.7,3.9c-5.1,0-11-4.2-14-8c0,0-3,0.7-6.2,0.9c0,0,9.7,13.6,28.9,13.6C489.5,753.7,497.3,734.8,500.6,728.7
	L500.6,728.7z"/>
<path class="st2" d="M486.4,742c0-3.3-1-6.4-2.8-8.9c-7.4,1.7-15.9,3.3-28.3,4.9c-0.1,0.4-0.2,0.7-0.2,1.1c0.7,0.6,2.2,1.3,4.9,1.1
	c1.9-0.1,2.2-0.6,2.9-0.7c1.4-0.3,3.6,1.2,3.3,3.7c-0.2,1.7-1.7,3.9-6.7,3.9c-1.3,0-2.7-0.3-4-0.8c0.7,2.3,1.8,4.4,3.4,6.1
	c3.1,0.8,6.2,1.2,9.4,1.2c6.8,0,12.2-1.9,16.5-4.8C485.9,746.7,486.4,744.4,486.4,742L486.4,742z"/>
<path class="st3" d="M486.2,742c0-3.2-1-6.3-2.8-8.9c-7.3,1.7-15.7,3.3-27.8,4.8c-0.1,0.4-0.2,0.9-0.3,1.3c0.8,0.6,2.2,1.1,4.7,1
	c1.9-0.1,2.2-0.6,2.9-0.7c1.4-0.3,3.6,1.2,3.3,3.7c-0.2,1.7-1.7,3.9-6.7,3.9c-1.2,0-2.5-0.2-3.8-0.7c0.7,2.3,1.9,4.4,3.5,6.1
	c2.7,0.7,5.7,1.1,9,1.1c6.6,0,11.9-1.8,16.1-4.5C485.6,746.9,486.2,744.5,486.2,742L486.2,742z"/>
<path class="st1" d="M486,742c0-3.3-1-6.3-2.8-8.8c-7.2,1.7-15.5,3.2-27.3,4.7c-0.1,0.5-0.2,1-0.3,1.4c0.8,0.5,2.2,1,4.5,0.8
	c1.9-0.1,2.2-0.6,2.9-0.7c1.4-0.3,3.6,1.2,3.3,3.7c-0.2,1.7-1.7,3.9-6.7,3.9c-1.2,0-2.4-0.2-3.5-0.6c0.7,2.3,2,4.4,3.7,6.1
	c2.6,0.6,5.5,1,8.7,1c6.4,0,11.6-1.7,15.8-4.3C485.3,747.1,486,744.6,486,742z"/>
<path class="st1" d="M302.3,728.7c13.6,3.7,23.3,6.6,46.2,9.4c0,0-0.7,2.4-5.7,2.1c-1.9-0.1-2.2-0.6-2.9-0.7
	c-1.4-0.3-3.6,1.2-3.3,3.7c0.2,1.7,1.7,3.9,6.7,3.9c5.1,0,11-4.2,14-8c0,0,3.1,0.7,6.2,0.9c0,0-9.7,13.6-29,13.6
	C313.5,753.7,305.7,734.8,302.3,728.7L302.3,728.7z M399.3,616.3c72.8,0,153.6-44.7,210.1-109.2c6.1-7,16.5-20.2,41.1-20.2
	c24.6,0,57.4,22.4,53.5,63.3c-2.8,29.8-45.4,97-118.2,138.4S446,738.9,399.3,738.9s-113.7-8.9-186.6-50.3
	C139.9,647.2,97.3,580.1,94.5,550.3c-3.9-40.9,28.9-63.3,53.5-63.3s35,13.2,41.1,20.2C245.8,571.6,326.5,616.3,399.3,616.3
	L399.3,616.3z"/>
<path d="M399.3,613.7c35.3,0,72.5-10.6,107.9-29c36.9-19.1,71.7-46.6,100.3-79.2c3.2-3.6,7.4-8.8,14.2-13.2c6.8-4.4,16-7.9,28.9-7.9
	c1.3,0,2.8,0.1,4.3,0.2c11.9,1.1,24.9,6.9,35,16.9c10.1,10,17.2,24.2,17.2,42.3c0,2.1-0.1,4.4-0.3,6.8c-1.6,17.1-15.8,46-41,75.4
	c-19.7,23.1-46.2,46.5-78.6,65c-36.7,20.8-71.9,33.5-103.8,41c-55.3,12.9-112.8,12.9-168.1,0c-31.9-7.4-67.1-20.1-103.8-41
	c-32.4-18.4-58.9-41.9-78.6-65c-25.1-29.4-39.3-58.3-41-75.4c-0.2-2.2-0.3-4.5-0.3-6.8c0-18.1,7.1-32.3,17.2-42.3
	c10.1-10,23.1-15.7,35-16.9c1.5-0.1,2.9-0.2,4.3-0.2c12.9,0,22.1,3.5,28.9,7.9c6.8,4.4,11,9.6,14.2,13.2
	c28.6,32.6,63.5,60.1,100.3,79.2C326.8,603,364,613.7,399.3,613.7L399.3,613.7z M399.3,618.9c-36.2,0-74.2-10.9-110.3-29.6
	c-37.4-19.4-72.8-47.4-101.8-80.5c-3-3.4-7-8.3-13.1-12.2c-6.1-3.9-14.4-7-26.1-7c-1.3,0-2.5,0.1-3.8,0.2
	c-10.8,1-22.6,6.3-31.8,15.4c-9.2,9.1-15.6,22.1-15.6,38.6c0,2.1,0.1,4.2,0.3,6.3c1.5,16.2,15.3,44,39.7,72.5
	c19.4,22.7,45.4,45.7,77.2,63.8c36.2,20.6,70.9,33,102.4,40.4c27.2,6.3,55,9.6,82.9,9.6c27.9,0,55.7-3.2,82.9-9.6
	c31.5-7.4,66.2-19.8,102.4-40.4c31.8-18.1,57.8-41.2,77.2-63.8c24.4-28.6,38.2-56.3,39.7-72.5c0.2-2.1,0.3-4.2,0.3-6.3
	c0-16.6-6.5-29.5-15.6-38.6c-9.2-9.1-21-14.3-31.8-15.4c-1.3-0.1-2.5-0.2-3.8-0.2c-11.7,0-20,3.1-26.1,7c-6.1,4-10.1,8.9-13.1,12.2
	c-29.1,33.1-64.4,61-101.8,80.4C473.5,608,435.5,618.9,399.3,618.9L399.3,618.9z"/>
<path class="st4" d="M181,513.5l-0.9-1c-5.8-6.7-13.7-15.8-32.7-15.8c-11.1,0-23.6,5.9-31.9,15.1c-6.2,6.8-13.3,18.8-11.6,37.2
	c2.4,25.1,42.2,90.2,113.2,130.5c57.2,32.5,118.3,49,181.6,49s124.4-16.5,181.6-49c71-40.3,110.8-105.4,113.2-130.5
	c1.7-18.4-5.3-30.4-11.6-37.2c-8.3-9.2-20.9-15.1-31.9-15.1c-19,0-26.9,9.1-32.7,15.8l-0.8,1C555.5,583,472,626.1,398.7,626.1
	C325.4,626.1,242,583,181,513.5L181,513.5z"/>
<path class="st1" d="M633.3,431.6c0-34.9,28.3-63.3,63.3-63.3c35,0,63.3,28.3,63.3,63.3c0,34.9-28.3,63.3-63.3,63.3
	C661.7,494.9,633.3,466.5,633.3,431.6z"/>
<path d="M630.7,431.6c0-18.2,7.4-34.7,19.3-46.6c11.9-11.9,28.4-19.3,46.6-19.3s34.7,7.4,46.6,19.3c11.9,11.9,19.3,28.4,19.3,46.6
	c0,18.2-7.4,34.7-19.3,46.6s-28.4,19.3-46.6,19.3s-34.7-7.4-46.6-19.3C637.6,465.8,630.7,449.1,630.7,431.6L630.7,431.6z M636,431.6
	c0,16.7,6.8,31.9,17.8,42.9s26.1,17.8,42.9,17.8s31.9-6.8,42.9-17.8c11.4-11.4,17.8-26.8,17.8-42.9c0-16.1-6.4-31.5-17.8-42.9
	c-11-11-26.2-17.8-42.9-17.8s-31.9,6.8-42.9,17.8C642.3,400.1,635.9,415.5,636,431.6z"/>
<path class="st1" d="M40.1,431.7c0-34.9,28.3-63.3,63.3-63.3c34.9,0,63.3,28.3,63.3,63.3c0,35-28.3,63.3-63.3,63.3
	C68.4,495,40.1,466.6,40.1,431.7z"/>
<path d="M37.5,431.7c0-18.2,7.4-34.7,19.3-46.6c12.3-12.4,29.1-19.3,46.6-19.3c18.2,0,34.7,7.4,46.6,19.3
	c12.4,12.3,19.3,29.1,19.3,46.6c0,18.2-7.4,34.7-19.3,46.6c-12.3,12.4-29.1,19.3-46.6,19.3c-18.2,0-34.7-7.4-46.6-19.3
	S37.5,449.9,37.5,431.7L37.5,431.7z M42.7,431.7c0,16.1,6.4,31.5,17.8,42.9c11.4,11.4,26.8,17.8,42.9,17.8
	c16.8,0,31.9-6.8,42.9-17.8c11.4-11.4,17.8-26.8,17.8-42.9c0-16.7-6.8-31.9-17.8-42.9S120.1,371,103.4,371
	c-16.1,0-31.5,6.4-42.9,17.8C49.1,400.2,42.7,415.6,42.7,431.7L42.7,431.7z"/>
<path class="st0" d="M713.9,261.4l0.3-16.9c5.2,3.9,15,4.1,20.8-2.1c2.7-2.8,4.1-7.1,3.9-11.6c-0.3-5.3-2.6-10.2-6.3-13.9
	c-21.3-20.8-40.2-41.5-40.2-41.5c-1.9-3.1-5-5.3-6.8-6.1c-2.7-1.2-11.9-5.4-18.9,5.3c-6.4,9.7-5.4,23.4-4.3,28.4l20,27.2
	C689.4,238.7,708.6,257.1,713.9,261.4L713.9,261.4z M287.9,85.2c25.1-8.4,48.1-15.4,79-18.1L287.9,85.2z"/>
<path class="st0" d="M287.9,85.2c25.1-8.4,48.1-15.4,79-18.1l4.7-2.7c-17.3-13.6-34.4-22.8-51.5-22.8c-10.7,0-32.5,7.3-37.4,45.7
	L287.9,85.2z M510.9,85.2c-25.1-8.4-48.1-15.4-79-18.1l-4.7-2.7c17.3-13.6,34.4-22.8,51.5-22.8c10.7,0,32.5,7.3,37.4,45.7
	L510.9,85.2L510.9,85.2z M378.7,63.3c5.1-0.3,16.9-0.5,21.6-0.5c4.7,0,17.7,0.6,20.6,0.8C421,63.6,378.7,63.3,378.7,63.3z"/>
<path class="st0" d="M371,65.8c12.6-24.2,24.2-33,30.6-33c8,0,17.4,12.7,24.7,29.2l1.6,3.7l-6.4-0.5c-4.4-0.8-16.4-0.9-21.1-0.9
	c-4.7,0-14.9,0-21.1,0.5C379.3,64.7,371,65.8,371,65.8z"/>
<path class="st1" d="M346.2,639.4l-11.3,42.2l-21.1-50.9l-13.1-3.5l-16,59.7l14.2,3.8l11.4-42.5l21.4,51.3l12.8,3.4l16-59.7
	L346.2,639.4z M395.4,647l-16.2-0.9l-3.2,61.7l16.2,0.9L395.4,647z M410,646.4l1.1,8.1l17.3-2.4l7.5,53.1l16.1-2.3l-7.5-53.1l17-2.4
	l-1.1-8.1L410,646.4z M577.4,621.3c7.9,13.8,6.3,23.8-5.8,30.8l-5.7,3.3L543,616.1l6.2-3.6C563.8,604.1,571.9,611.5,577.4,621.3
	L577.4,621.3z M545.8,605l-20.9,12.1l31,53.7l20.8-12c21.6-12.5,23.6-31.3,15.1-46.4C581.5,594.5,564.7,594,545.8,605L545.8,605z
	 M506.5,681l-6.2-19l18.3-6l-2.6-7.9l-18.3,5.9l-5.3-16.2l18.8-6.1l-2.5-7.8l-34.3,11.2l19.1,58.8l37.9-12.3l-2.6-7.9L506.5,681
	L506.5,681z M271.4,612.9l-18.3,33c-5.5,10-11.2,16.3-20.5,10.9c-9.2-5.1-7.1-12.7-1.4-23l18.3-33.1l-14.8-8.2l-19.4,34.9
	c-10.7,19.3,2.8,31.2,13.2,36.9c11.2,6.2,27.6,10.9,38.2-8.2l19.5-35.1L271.4,612.9L271.4,612.9z M261,250v289.3l138.4,88.9
	l138.3-88.9l0.2-288.9c-4.4-3.9-13.6-12.5-20.9-17H281C275,237.7,263,247.7,261,250L261,250z"/>
<path d="M263.6,250v287.9l135.7,87.3l135.7-87.3l0.2-287.4h5.2l-0.2,288.9v1.4l-1.2,0.8l-138.4,88.9l-1.4,0.9l-1.4-0.9l-138.3-88.9
	l-1.2-0.8V250H263.6L263.6,250z"/>
<path d="M536.1,252.4c-1.2-1.1-0.3-0.3-1.6-1.5h0c-4.7-4.3-12.6-11.4-18.8-15.2l2.7-4.5c6.7,4.1,14.8,11.4,19.6,15.8h0l1.6,1.5
	L536.1,252.4z"/>
<path d="M517,236.1H281v-5.2h236L517,236.1L517,236.1z"/>
<path d="M282.5,235.6c-2.8,2-6.8,5.1-10.5,8.1c-4.3,3.5-8.1,6.9-9.2,8l-3.8-3.5c1.2-1.3,5.2-4.8,9.7-8.5c3.9-3.2,8-6.5,10.8-8.4
	L282.5,235.6L282.5,235.6z"/>
<path class="st4" d="M409.1,373.7c-1-0.4-4.4,2.4-6,4.8c-1.6,2.5-2,5.7,0.2,6.9s5-0.3,5.7-4.3C409.4,378.9,410.2,374.2,409.1,373.7
	L409.1,373.7z M382.6,381.2c0.6,3.9,3.5,5.4,5.7,4.3c2.2-1.2,1.8-4.4,0.2-6.9c-1.6-2.5-4.8-5.3-5.8-4.8
	C381.7,374.2,382.3,379,382.6,381.2L382.6,381.2z M396.5,419.7c4.6-7.6,6.6-15.6,6.6-15.6h-13.3
	C389.8,404.1,391.9,412.2,396.5,419.7z M398.8,362.4l10.7-18.7l8.4,18.7h13.9c-8.4,7.9-11.8,19.7-11.8,27.6v8.6
	c0,3.7-1.8,9.7-1.8,9.7s12,9.2,13.9,10.7c0.8,0.7,1.6,1,1,2.6c-1,2.7-9.1,6.3-10,7.1c-1.8,1.6-2.3,2.6-1.8,4.2
	c0.5,1.6,2.1,1.8,5.2,0.8c3.1-1,9.7-4.4,15.2-6.8c5.5-2.4,12.8-1.8,12.8-1.8v-10.5h-20.7v-33.5l-3.7-5.9l9.2-16.2l9.2,16.3l-3.7,5.8
	v17.6h10.6v-17.6l-3.7-5.8L461,359l9.2,16.3l-3.7,5.8v17.6h10.6v-17.6l-3.7-5.8l9.2-16.3l9.2,16.3l-3.7,5.8l0.1,33.5l-20.8,0V430
	c4.7,4.4,9.2,14.5,9.2,20.5c0,6-3.9,8.6-3.9,8.6c1.3,4.7,1,6.7,0.5,11c-0.5,4.4-6,11.3-6,11.3v79.9c0,5.4-12.6,4.9-12.6,0.3v-78.3
	c-7.1-7.9-26.5-13.9-26.5-13.9c-7.1,7.1-11.5,19.4-11.5,19.4c3.1,2.1,7.9,0,9.7-2.1c1.8-2.1,5.5-2.6,7.6-1.3c2.1,1.3,2.6,1.8,1.8,5
	c-0.8,3.1-2.1,8.4-2.1,12c0,3.7,4.2,2.9,7.3,3.1c6.3,0.5,7.3,7.6,6.8,11.5c-0.5,3.9-2.4,12.3-2.4,17.6s0.3,10.5,0.8,13.4
	c0.5,2.9,1.6,6,1.3,9.7c-0.4,5-3.4,5.8-6.5,2.6c-3.1-3.1-46.9-49.8-46.9-49.8c-2.9,9.4,9.2,25.7,13.1,30.7c3.9,5,3.7,8.6,0.3,12.1
	c-3.4,3.4-10,5.2-11.3,8.4c-1.3,3.1,3.1,12.6,12.3,24.4c9.2,11.8-10.5,19.7-22.3,22c-11.8,2.4-11.8-5.8-11-10.2
	c0.8-4.5,0.8-7.1,0.5-11c-0.3-3.9-3.9-9.4-8.9-16c-5-6.5-5-12.6-2.9-27.8c2.1-15.2,1.6-24.9,1.6-24.9s-5.2,0.3-12.8,0
	c-7.6-0.3-13.9-4.7-14.4-23c-0.5-18.3-1-62.1-2.2-66.6c-1.2-4.5-6.1-5.4-8.2-5.9c-2.1-0.5-2.2-3.7-0.2-4.7c5.5-2.7,12-9.4,9.6-13.6
	c-2.4-4.2-12.1-3.3-18.5-0.2c-6.5,3.1-13.3,10-15,11.9c-1.7,1.9-3.1,1.9-3-0.2c0.2-2.1-1.2-12.1-2.1-15.5c-0.9-3.5-4-10.1-5.1-11.9
	c-1-1.7,0-2.4,1.7-1.7c1.7,0.7,5.6,2.3,9.3,3.3c3.7,1,7.2-0.7,8.9-4.2c1.7-3.5,5.1-11,6.8-14.3c1.7-3.3,4.5-2.6,6.8-2.1
	c2.3,0.5,4.4,1.9,6.5,2.8c2.1,0.9,3.8,0.7,4.5-0.3c0.7-1,1.6-1.4,2.8-4c1.2-2.6,2.8-1.4,3-0.3c6.3,37.6,22.5,39.3,22.5,39.3
	c-2.4,6.3-8.2,16.2-9.6,18.7c-1.4,2.4-1.9,5.8-2.3,8.4c-0.3,2.6,0.9,27.4,2.6,36.5c1.8,9.1,7.3,5.6,9.1,2.8
	c1.7-2.8,7.2-14.3,7.2-14.3s1.4-3.1,1.4-5.8c0-2.6-4.5-8.4-5.6-10.1c-1-1.7-4.9-5.2-4.9-14c0-8.7,7.9-14.8,10.7-17.1
	c2.8-2.3,2.8-5.4,2.4-7.3c-1.2-6.8-8.4-21-11.9-26.4c-3.5-5.4-10.3-15.7-10.3-15.7h14.1l9.1-18.9l10,19L398.8,362.4L398.8,362.4z
	 M454.6,457.6v-10.7c0,0-2.9-4.5-10-4.5c-7.1,0-11.3,2.1-11.3,3.9C433.4,449.2,439.7,457.6,454.6,457.6z M271.8,322.1h255.2v17.4
	H271.8V322.1z M271.8,313.2v-69.3h255.2v69.3H271.8z"/>
<path class="st1" d="M476.8,315.3v-11.8h-18.5v-7.6h15.1v-33.5h-13.9l-4.7-9.2l-4.7,9.2h-13.9v33.5h15.1v7.6H415v-7.6h15.1v-33.5
	h-13.9l-4.7-9.2l-4.7,9.2h-13.9v33.5h15.1v7.6h-37v-7.6h15.1v-33.5h-13.9l-4.7-9.2l-4.7,9.2h-13.9v33.5h15.1v7.6l-29.3,0.1
	l-29.2-6.8l5.9,18.6H476.8L476.8,315.3z"/>
<path class="st1" d="M315.7,295.2l19.6,4.8l10.5-29.5l0-7.4L315.7,295.2L315.7,295.2z M362.9,65.2c-30.3,2.7-48.9,9.1-73.6,17.4
	c1.8-10.6,4.3-16.9,8.6-23.1c-0.3,5.5,4.1,11.3,13,11.3c8.9,0,13.9-5.1,13.9-8.2c0-3.1-1.9-7.5-6.7-7.5s-5.8,3.4-5.5,4.8
	c0.3,1.4-0.7,1.7-2.1,2.1c-1.4,0.3-5.1-1.7-3.8-6.5c1.5-5.3,7.9-8.1,15.4-8.1C322.2,47.2,340.1,46.5,362.9,65.2L362.9,65.2z
	 M509.6,82.8c-24.6-8.3-44.1-14.7-74.4-17.4c13.9-9.7,27-18,41.3-18c7.5,0,13.9,2.9,15.4,8.1c1.4,4.8-2.4,6.8-3.8,6.5
	c-1.4-0.3-2.4-0.7-2.1-2.1c0.3-1.4-0.7-4.8-5.5-4.8c-4.8,0-6.7,4.4-6.7,7.5s5,8.2,13.9,8.2s13.4-5.8,13-11.3
	C505.1,65.9,507.8,72.2,509.6,82.8L509.6,82.8z M381.6,59.5c-0.8,1.3-1.5,2.3-2.4,3.7c7.1-0.3,14.1-0.5,21.2-0.5
	c4.6,0,17.4,0.6,20.2,0.8c-4.5-10.5-13-24.9-19-24.9c-1.2,0-3.8-0.6-8.7,5c0,0-0.8,2.5,2.3,2c3.9-0.6,5.4,3.5,5.1,5.5
	c-0.7,4.7-6.2,9.2-11.6,9.2C383.2,60.4,381.6,59.5,381.6,59.5L381.6,59.5z"/>
<path class="st0" d="M117.6,230l20-27.2c1.1-5,2.1-18.7-4.3-28.4c-7-10.7-16.3-6.5-18.9-5.3c-1.7,0.8-4.8,3-6.8,6.1
	c0,0-19.2,21.2-40.4,42.1c-3,2.9-6.3,8.4-6.5,13.4c-0.2,4.5,1.5,9,4.2,11.8c5.8,6.2,15.9,5.8,21,1.9l0.3,16.9
	C91.6,257.1,110.8,238.7,117.6,230L117.6,230z"/>
<path class="st1" d="M399.3,190.4c113.9,0,178.8,107,192.9,125.7c25.2,33.5,55.9,60.7,91.5,51.7c52.4-13.3,49.6-90.9,49.6-90.9
	c-12.6-9.1-34.1-20.5-73.4-76.2C621.5,146.3,534.5,65.4,399.3,65.4c-135.2,0-222.2,80.9-260.6,135.4c-39.2,55.6-60.8,67.1-73.4,76.2
	c0,0-2.8,77.6,49.6,90.9c35.6,9,66.4-18.2,91.5-51.7C220.6,297.4,285.4,190.4,399.3,190.4L399.3,190.4z"/>
<path d="M399.3,187.8c105.9,0,169.7,91,190.5,120.6c1.9,2.7,3.4,4.9,4.4,6.2c12.4,16.5,26.2,31.5,41.2,41.2
	c14.7,9.5,30.6,13.9,47.7,9.6c46.5-11.8,47.7-77.1,47.6-87c-1-0.7-2.1-1.5-3.3-2.3c-13.2-9.1-34.4-23.7-69.6-73.8
	c-22.1-31.3-60.3-71.3-114.5-99.5c-39.5-20.5-87.5-34.7-144-34.7s-104.5,14.2-144,34.7c-54.3,28.2-92.5,68.2-114.5,99.5
	c-35.3,50-56.5,64.7-69.7,73.8c-1.2,0.8-2.2,1.6-3.2,2.3c-0.1,10,1.1,75.2,47.6,87c17,4.3,33-0.1,47.7-9.6
	c15-9.7,28.7-24.6,41.2-41.2c1-1.4,2.6-3.6,4.4-6.2C229.6,278.8,293.4,187.8,399.3,187.8z M399.3,193.1
	c-103.2,0-165.8,89.3-186.2,118.3c-1.5,2.1-3,4.3-4.5,6.4c-12.7,17-26.9,32.4-42.5,42.5c-15.9,10.2-33.1,14.9-51.8,10.2
	c-54.5-13.8-51.6-93.3-51.6-93.5l0-1.3l1.1-0.8c1.4-1,2.9-2,4.4-3.1c12.9-8.9,33.6-23.2,68.3-72.5C159,167.5,197.8,126.8,253,98.1
	c40.2-20.9,89-35.3,146.4-35.3c57.4,0,106.2,14.5,146.4,35.3c55.2,28.6,94,69.3,116.4,101.2c34.8,49.3,55.5,63.6,68.3,72.5
	c1.5,1.1,3,2.1,4.4,3.1l1.1,0.8l0,1.3c0,0.2,2.9,79.7-51.6,93.5c-18.6,4.7-35.9,0-51.7-10.2c-15.6-10.1-29.8-25.5-42.5-42.5
	c-1.3-1.7-2.7-3.8-4.5-6.4C565.2,282.3,502.5,193.1,399.3,193.1L399.3,193.1z"/>
<path class="st4" d="M399.3,180.4c109.8,0,175.1,93.1,196.6,123.7c1.4,2,2.8,4,4.3,6c29.1,38.7,55.6,54.4,81,48
	c36.8-9.3,41.3-60,41.8-75.3l0-0.6l-0.5-0.3c-12.9-8.9-34.6-23.9-70.9-75.3C630,175.9,547.7,75.5,399.3,75.5S168.6,175.9,147,206.6
	c-36,51.1-58.7,66.7-70.8,75.1l-0.5,0.3l0,0.6c0.5,15.4,5.1,66.2,41.7,75.5c25.4,6.4,51.9-9.3,81-48c1.1-1.4,2.6-3.5,4.3-6
	C224.2,273.5,289.5,180.4,399.3,180.4L399.3,180.4z"/>
<path class="st1" d="M163.1,223.3l-11.5,13.7l21.5,44.4L127,266.3l-9.9,11.8l47.3,39.7l7.2-8.5l-33.4-28.2l44.8,14.6l4.7-5.6
	l-21.4-42.8l33.6,28.2l10.4-12.4L163.1,223.3L163.1,223.3z M222.9,214l-10.7,11.5l-11-21.2L222.9,214L222.9,214z M198,185.9
	l-10.5,11.3l29.6,58.9l7.2-7.7l-8-15.6l14.3-15.4l16.2,6.9l11.9-12.8L198,185.9L198,185.9z M270.2,130l23.2,37.1l-51.6-19.3
	l-11.5,7.2l32.8,52.4l12.5-7.8l-23.3-37.4l52.2,19.3l11.2-7l-32.7-52.4L270.2,130L270.2,130z M465.8,160.3l6.5-18.9l18.2,6.3
	l2.7-7.9l-18.2-6.3l5.5-16.1l18.7,6.4l2.7-7.8l-34.1-11.7l-20.1,58.4l37.6,13l2.7-7.8L465.8,160.3L465.8,160.3z M571.5,156.4l-5.6,6
	l13,11.7L543.1,214l12.1,10.9L591,185l12.8,11.5l5.5-6.1L571.5,156.4L571.5,156.4z M589.2,249.2l15.3-12.8l12.4,14.7l6.4-5.3
	L610.9,231l13-10.9l12.7,15.2l6.3-5.3l-23.2-27.7L572.4,242l25.6,30.5l6.4-5.3L589.2,249.2L589.2,249.2z M660.8,264.9
	c4.3,4.8,4.3,10.5-0.6,14.9s-11.1,3.5-15.8-1.8l-2.8-3.1l15.6-14.1L660.8,264.9L660.8,264.9z M652.6,295.4c0.1,0.1,9.6,4.8,20-4.6
	c8.7-7.9,5.8-18.6-3.3-28.7l-16.8-18.7l-45.9,41.3l10.9,12.1l18.2-16.4l5.4,6l-11.6,26l13.8,11.1L652.6,295.4L652.6,295.4z
	 M420.2,99.2l-0.4,25.2l-24.3-0.4l0.4-25.2l-16.2-0.3l-1.1,61.8l16.2,0.3l0.5-28.2l24.3,0.4l-0.5,28.2l16.3,0.3l1.1-61.8L420.2,99.2
	z M508.2,191.1c11.5,6.9,24.1,5.8,30-3.9c4.3-6.8,4.3-12.4-0.8-22.5c-1.4-2.9-3.1-5-4.2-7.6c-2.2-4.3-4.3-7.7-2.4-11
	c2.1-3.5,7.1-3.8,11.6-1.1c4.8,2.9,6.7,7.6,7.7,10.9l7.5-3.2c-2.3-6.1-5.7-11.6-13.4-16.2c-13.2-7.9-24-5.8-28.5,1.6
	c-4.5,7.5-3.2,13.7,0.1,20.1c0,0,2.2,3.7,3.4,6.1c3,5,6.4,11.3,4,15.3c-3,4.9-8.1,6-13.1,2.9c-6.4-4-7.8-8.7-9.2-13.2l-8.2,3.5
	C494.6,179,498.9,185.5,508.2,191.1L508.2,191.1z M339.7,102.5c-20.2,4.3-33.5,19.2-29.1,39.3c2.5,10.9,12.2,30.9,42.9,24.4
	c8.5-1.6,13.1-5.1,17.6-9.3l-5.7-6.4c-2.1,2.3-5.3,5.8-12.3,7.3c-14.8,3.2-23.7-8.9-25.9-19.3c-3.3-15.3,5.7-26,15.9-28.2
	c7.2-1.5,11.6,0.4,14.4,1.5l0.1,0l1.9-7.9C354.6,101.9,348.8,100.6,339.7,102.5L339.7,102.5z M667.3,205.2
	c-0.9-3.7-2.1-19.3,3.9-27.6c5.5-7.6,10.5-5,13.2-3.8c1.2,0.5,4.8,2.9,5.5,7.5c0.4,2.5-0.4,6.2-2.3,8.9c-3.8,4.9-12.3,8.1-12.3,8.1
	s11,21.5,34.2,42.8l-0.1,14.5C677.6,224.9,667.3,205.2,667.3,205.2z"/>
<path class="st1" d="M683.2,200.8c3.1,5.4,11.1,18.7,31.1,37.4c3.3,3.1,11.6,5.7,16.3,0.5c1.8-2,2.9-4.9,2.8-8.2
	c-0.2-3.8-2.6-8.3-4.9-10.3c-4-3.4-21.2-20.8-33.5-34.4c-0.3,2.5-2.4,6.6-2.4,6.6C690.9,194.7,688.9,198.1,683.2,200.8L683.2,200.8z
	 M90.8,254.7l-0.1-13.7c23.2-21.3,34.2-42.7,34.2-42.7s-8.6-3.2-12.3-8.1c-1.9-2.7-2.7-6.4-2.3-8.9c0.7-4.6,4.3-7,5.5-7.5
	c2.7-1.2,7.7-3.8,13.2,3.8c5.9,8.3,4.4,23.8,3.5,27.5C132.6,205.1,121.7,224,90.8,254.7L90.8,254.7z"/>
<path class="st1" d="M116.6,200.8c-3.1,5.4-11.1,18.7-31.1,37.4c-3.3,3.1-11.6,5.7-16.2,0.5c-1.8-2-2.9-4.9-2.8-8.2
	c0.2-3.8,2.6-8.3,4.9-10.3c4-3.4,21.2-20.8,33.5-34.4c0.3,2.5,2.4,6.6,2.4,6.6C108.9,194.7,111,198.1,116.6,200.8L116.6,200.8z"/>
<path class="st4" d="M52,432.2c0-28.4,23-51.5,51.5-51.5c28.4,0,51.5,23,51.5,51.5c0,28.4-23,51.5-51.5,51.5
	C75.1,483.7,52,460.7,52,432.2z"/>
<path class="st1" d="M131.2,394.9c0.9,0.7,3.1,2.5,3.1,2.5c4.5,4,8.5,8.7,10.8,14.2c2.9,7-6.1,17.6-8.8,20.1
	c-12,11.2-19.5,11-23.8,11.6c-4.3,0.6-7-2-6.9-5.3c0.3-9.5,7-25.6,8.9-28.5c1.2-1.9,3.4-3.2,3.4-3.2c4.4-1.2,8.7-3.1,11-5.7
	C131.1,398.3,131.2,394.9,131.2,394.9L131.2,394.9z M88.1,388.1c4.9-1.6,10-2.5,15.1-2.5c8,0,15.7,1.5,22.2,5.6
	c1.7,1,2.1,2.4,2.1,4.2c0,6.1-9.5,8.1-15.9,8.1c-6.3,0-14.1-2.5-19.7-4.2c-5.5-1.7-6.8-5-6.8-6.4C85.3,391.6,86.3,388.7,88.1,388.1
	L88.1,388.1z M67.7,462.3c-6.5-6.4-11.1-17.9-11.1-30.1c0-4.7,0.7-9.3,2-13.5c0,0,1.1-2,2.2-0.3c0.8,1.2,1.8,2.4,2.7,4
	c0.9,1.6,6,5.4,5.5,8.5c-1.8,11.4-0.2,26.6,0.4,29.1C69.9,462.5,69.1,463.6,67.7,462.3z M69,423.3c-2.3-1.3-5-7.1-5.9-8.9
	c-0.6-1.2-0.6-4.7,0.3-6.3c3.8-6.7,9.2-12.8,16.2-16c0.8-0.4,2-0.4,2,1.6c0,1.1,0.5,2.8,0.6,3.9c0,1.1,0.5,3.3-0.9,5.1
	c-1.4,1.8-7.7,12.7-9.2,19C71.6,423.1,71.3,424.6,69,423.3z M104.2,478.9c-0.3,0-0.7,0-1,0c-8.6,0-18-3.2-23.5-6.4
	c-5.7-3.2-7.9-17.9-7.9-25.5c0-24.3,10-38.9,11.6-41.7c1.6-2.8,5.1-3.2,7.8-2.5c2.7,0.7,3.7,1.2,6.7,2.2c1.7,0.5,5,1.2,7.4,1.7
	c2.5,0.5,5.1,1.1,3.5,5.7c-1.6,4.6-6.9,15.8-7.5,28.9c-0.5,11.9,1.1,23.8,3.8,31.1C106.9,477.2,106.9,478.9,104.2,478.9L104.2,478.9
	z M116.5,477c-2.7,0.9-3.9-1-5.1-2.5c-4.8-5.5-6-20.2-6-22.1c0-2,0.7-4.1,2.1-4.1c11.6-0.3,19.9-3.7,27.5-9.9
	c7.6-6.2,10.9-13.3,11.6-14.7c0.7-1.4,2.2-1.1,2.5,0.9c0.3,1.6,0.9,4.6,0.9,7.7C149.9,453.4,135.6,470.8,116.5,477L116.5,477z"/>
<path class="st4" d="M748.7,432.2c0-28.4-23-51.5-51.5-51.5c-28.4,0-51.5,23-51.5,51.5c0,28.4,23,51.5,51.5,51.5
	C725.6,483.7,748.7,460.7,748.7,432.2z"/>
<path class="st1" d="M671.8,400.8c2.2,2.5,6.5,4.4,11,5.7c0,0,2.1,1.2,3.4,3.2c1.9,3,8.6,19.1,8.9,28.5c0.1,3.2-2.6,5.9-6.9,5.3
	c-4.3-0.6-11.8-0.4-23.8-11.6c-2.7-2.5-11.7-13-8.8-20.1c2.3-5.6,6.3-10.3,10.8-14.2c0,0,2.2-1.8,3.1-2.5
	C669.5,394.9,669.6,398.3,671.8,400.8L671.8,400.8z M715.4,393c0,1.4-1.2,4.6-6.8,6.4c-5.5,1.7-13.3,4.2-19.7,4.2
	c-6.4,0-15.9-2.1-15.9-8.1c0-1.9,0.5-3.2,2.1-4.2c6.5-4.1,14.2-5.6,22.2-5.6c5.3,0,10.4,0.9,15.1,2.5
	C714.3,388.7,715.4,391.6,715.4,393L715.4,393z M731.3,460c0.5-2.5,2.1-17.7,0.4-29.1c-0.5-3,4.6-6.8,5.5-8.5c0.9-1.6,1.9-2.8,2.7-4
	c1.1-1.7,2.2,0.3,2.2,0.3c1.3,4.4,2,9,2,13.5c0,12.2-4.6,23.7-11.1,30.1C731.6,463.6,730.8,462.5,731.3,460z M728.7,421.7
	c-1.5-6.2-7.8-17.2-9.2-19c-1.4-1.8-0.9-4.1-0.9-5.1c0-1.1,0.6-2.8,0.6-3.9c0-2,1.2-1.9,2-1.6c7,3.2,12.4,9.3,16.2,16
	c0.9,1.5,0.9,5,0.3,6.3c-0.9,1.7-3.6,7.6-5.9,8.9C729.4,424.6,729,423.1,728.7,421.7z M695.5,472.4c2.7-7.3,4.3-19.2,3.8-31.1
	c-0.6-13.2-5.9-24.3-7.5-28.9c-1.6-4.6,1.1-5.1,3.5-5.7c2.5-0.5,5.8-1.2,7.4-1.7c3-0.9,4.1-1.5,6.7-2.2c2.7-0.7,6.2-0.3,7.8,2.5
	c1.6,2.8,11.6,17.4,11.6,41.7c0,7.5-2.1,22.2-7.9,25.5c-5.6,3.1-14.9,6.4-23.5,6.4c-0.3,0-0.7,0-1,0
	C693.8,478.9,693.7,477.2,695.5,472.4L695.5,472.4z M650.8,432.2c0-3.1,0.6-6.1,0.9-7.7c0.4-2,1.8-2.2,2.5-0.9
	c0.7,1.4,4,8.4,11.6,14.7c7.6,6.2,15.9,9.6,27.5,9.9c1.4,0,2.1,2.2,2.1,4.1c0,1.9-1.2,16.7-6,22.1c-1.2,1.4-2.5,3.3-5.1,2.5
	C665.1,470.8,650.8,453.4,650.8,432.2L650.8,432.2z"/>
<path class="st5" d="M645.9,431.9c0-13.7,5.4-26.9,15.2-36.6c9.4-9.4,22.3-15.2,36.6-15.2c14.3,0,27.2,5.8,36.6,15.2
	c9.4,9.4,15.1,22.3,15.1,36.6s-5.8,27.2-15.1,36.6c-9.4,9.4-22.3,15.1-36.6,15.1c-13.7,0-26.9-5.4-36.6-15.1
	C651.4,458.8,645.9,445.7,645.9,431.9z M646.5,431.9c0,14.1,5.7,26.9,15,36.2c9.3,9.3,22.1,15,36.2,15s26.9-5.7,36.2-15
	c9.3-9.3,15-22.1,15-36.2s-5.7-26.9-15-36.2c-9.6-9.6-22.6-15-36.2-15c-13.6,0-26.6,5.4-36.2,15
	C651.8,405.3,646.4,418.4,646.5,431.9z"/>
</svg>
