<?xml version="1.0" encoding="utf-8"?>
<!-- Generator: Adobe Illustrator 28.1.0, SVG Export Plug-In . SVG Version: 6.00 Build 0)  -->
<svg version="1.1" id="Layer_1" xmlns="http://www.w3.org/2000/svg" xmlns:xlink="http://www.w3.org/1999/xlink" x="0px" y="0px"
	 viewBox="0 0 665 887.6" style="enable-background:new 0 0 665 887.6;" xml:space="preserve">
<style type="text/css">
	.st0{fill-rule:evenodd;clip-rule:evenodd;fill:#C23227;}
</style>
<path class="st0" d="M388,101.8c-3.2-1.4-14.8,7.9-20,16.2s-6.8,19.1,0.7,23c7.5,3.9,16.9-1.2,19.1-14.2
	C389.1,119.1,391.6,103.4,388,101.8L388,101.8z M299.3,126.8c1.9,13.1,11.6,18.2,19.1,14.2c7.5-3.9,5.9-14.7,0.7-23
	c-5.3-8.3-16.1-17.6-19.4-16.2C296.2,103.4,298.2,119.4,299.3,126.8L299.3,126.8z M345.8,255.7c15.6-25.5,22-52.1,22-52.1h-44.5
	C323.4,203.6,330.5,230.8,345.8,255.7z M353.5,63.8l36-62.6l28.1,62.6h46.5c-28.1,26.3-39.5,66.1-39.5,92.4v29
	c0,12.3-6.1,32.5-6.1,32.5s40.3,30.8,46.5,36c2.6,2.2,5.4,3.5,3.5,8.8c-3.2,9.1-30.4,21.2-33.3,23.7c-6.1,5.3-7.8,8.7-6,14.1
	c1.8,5.2,6.9,6.1,17.4,2.6c10.5-3.5,32.5-14.9,50.9-22.8c18.4-7.9,43-6.2,43-6.2v-35.1h-69.3V126.4l-12.3-19.6l30.7-54.4l30.7,54.7
	L508,126.4v58.8h35.5v-58.8l-12.3-19.3l30.7-54.4l30.7,54.4l-12.3,19.3v58.8h35.5v-58.8l-12.3-19.3l30.7-54.4l30.7,54.4l-12.3,19.3
	l0.4,112.2l-69.7,0v51.6c15.8,14.9,30.7,48.5,30.7,68.7c0,20.2-13.2,29-13.2,29c4.4,15.8,3.5,22.4,1.7,36.9
	c-1.8,14.8-20.2,37.7-20.2,37.7V730c0,18.2-42.1,16.5-42.1,0.9V468.6c-23.7-26.3-88.6-46.5-88.6-46.5
	c-23.7,23.7-38.6,64.9-38.6,64.9c10.5,7,26.3,0,32.5-7c6.1-7,18.4-8.8,25.5-4.4c7,4.4,8.8,6.2,6.1,16.7c-2.6,10.5-7,28-7,40.3
	c0,12.3,14.1,9.6,24.6,10.5c21.1,1.8,24.6,25.4,22.8,38.6c-1.8,13.2-7.9,41.3-7.9,58.8c0,17.5,0.9,35.1,2.6,44.8
	c1.7,9.6,5.3,20.2,4.4,32.5c-1.2,16.6-11.4,19.3-21.9,8.8c-10.5-10.5-157.1-166.7-157.1-166.7c-9.6,31.6,30.7,86,43.9,102.7
	c13.2,16.7,12.3,29,0.9,40.4c-11.4,11.4-33.4,17.5-37.7,28.1c-4.4,10.5,10.5,42.1,41.2,81.6c30.7,39.5-35.1,65.8-74.6,73.7
	c-39.5,7.9-39.5-19.3-36.8-34.2c2.6-14.9,2.6-23.7,1.8-36.9c-0.9-13.1-13.2-31.6-29.8-53.5c-16.7-21.9-16.7-42.1-9.6-93
	c7-50.9,5.3-83.4,5.3-83.4s-17.6,0.9-43,0c-25.4-0.9-46.5-15.7-48.3-77.1c-1.8-61.4-3.2-207.9-7.3-223.2
	c-4.1-15.2-20.5-18.1-27.5-19.9c-7-1.8-7.5-12.3-0.5-15.8c18.3-9.1,40.3-31.6,32.1-45.6c-8.2-14.1-40.4-11.1-62-0.6
	c-21.6,10.5-44.5,33.3-50.3,39.8c-5.9,6.4-10.5,6.4-10-0.6s-4.1-40.4-7-52.1c-2.9-11.7-13.5-33.9-17-39.8s0-8.2,5.9-5.9
	c5.9,2.3,18.7,7.6,31,11.1s24-2.3,29.8-14c5.9-11.7,17-36.8,22.8-48c5.9-11.1,15.2-8.8,22.8-7c7.6,1.8,14.6,6.4,21.6,9.4
	c7,2.9,12.9,2.3,15.2-1.2c2.3-3.5,5.3-4.7,9.4-13.5c4.1-8.8,9.4-4.7,9.9-1.2c21,125.9,75.5,131.6,75.5,131.6
	c-8.2,21-27.5,54.4-32.2,62.6c-4.7,8.2-6.4,19.3-7.6,28.1c-1.2,8.8,2.9,91.8,8.8,122.3c5.9,30.4,24.6,18.7,30.4,9.4
	c5.8-9.4,24-48,24-48s4.7-10.5,4.7-19.3c0-8.8-15.2-28.1-18.7-33.9c-3.5-5.8-16.4-17.5-16.4-46.8c0-29.2,26.3-49.7,35.7-57.3
	c9.4-7.6,9.4-18.1,8.2-24.5c-4.1-22.6-28.1-70.2-39.8-88.4c-11.7-18.1-34.5-52.6-34.5-52.6h47.4L285.7,0l33.3,63.5L353.5,63.8
	L353.5,63.8z M540.4,382.6v-36c0,0-9.7-14.9-33.4-14.9c-23.7,0-37.7,7-37.7,13.2C469.4,354.5,490.4,382.6,540.4,382.6z"/>
</svg>
